<svg id="Layer_1" data-name="Layer 1" xmlns="http://www.w3.org/2000/svg" viewBox="0 0 512 512"><defs><style>.cls-1{fill:none;stroke:#fff;stroke-linecap:round;stroke-linejoin:round;stroke-width:32px;}</style></defs><title>snow</title><line class="cls-1" x1="256" y1="32" x2="256" y2="480"/><path class="cls-1" d="M313.72,80A111.49,111.49,0,0,1,256,96a111.49,111.49,0,0,1-57.72-16"/><path class="cls-1" d="M198.28,432a112.13,112.13,0,0,1,115.44,0"/><line class="cls-1" x1="449.99" y1="144" x2="62.01" y2="368"/><path class="cls-1" d="M437.27,218a112.1,112.1,0,0,1-57.71-100"/><path class="cls-1" d="M74.73,294a112.1,112.1,0,0,1,57.71,100"/><line class="cls-1" x1="62.01" y1="144" x2="449.99" y2="368"/><path class="cls-1" d="M74.73,218a112.1,112.1,0,0,0,57.71-100"/><path class="cls-1" d="M437.27,294a112.1,112.1,0,0,0-57.71,100"/></svg>