<svg id="Layer_1" data-name="Layer 1" xmlns="http://www.w3.org/2000/svg" viewBox="0 0 512 512"><defs><style>.cls-1{fill:none;stroke:#fff;stroke-linecap:round;stroke-linejoin:round;stroke-width:32px;}</style></defs><title>thunderstorm</title><line class="cls-1" x1="120" y1="352" x2="96" y2="400"/><line class="cls-1" x1="136" y1="432" x2="120" y2="464"/><line class="cls-1" x1="400" y1="352" x2="376" y2="400"/><line class="cls-1" x1="416" y1="432" x2="400" y2="464"/><polyline class="cls-1" points="208 304 192 400 240 400 240 480 320 368 272 368 288 304"/><path class="cls-1" d="M404.33,152.89H392.2C384.71,84.85,326.14,32,256,32a136.38,136.38,0,0,0-128.63,90.67H122.8c-49.94,0-90.8,40.8-90.8,90.66h0C32,263.2,72.86,304,122.8,304H404.33A75.8,75.8,0,0,0,480,228.44h0A75.8,75.8,0,0,0,404.33,152.89Z"/></svg>